{
  "accessors": [
    {
      "bufferView": 1,
      "componentType": 5126,
      "count": 426,
      "max": [
        1.232086420059204,
        2.374767541885376,
        13.608428955078125
      ],
      "min": [
        -1.20650315284729,
        -2.8630783557891846,
        -0.31946229934692383
      ],
      "type": "VEC3"
    },
    {
      "bufferView": 1,
      "byteOffset": 5112,
      "componentType": 5126,
      "count": 426,
      "max": [
        0.9999902844429016,
        0.9462944865226746,
        0.9146648645401001
      ],
      "min": [
        -0.9999949336051941,
        -0.9643533229827881,
        -0.8929867744445801
      ],
      "type": "VEC3"
    },
    {
      "bufferView": 0,
      "componentType": 5125,
      "count": 426,
      "type": "SCALAR"
    }
  ],
  "asset": {
    "extras": {
      "author": "dvnc.tech (https://sketchfab.com/dvnc.tech)",
      "license": "CC-BY-4.0 (http://creativecommons.org/licenses/by/4.0/)",
      "source": "https://sketchfab.com/3d-models/low-poly-fence-7af608be40ca42488843463fb8c80e4a",
      "title": "Low-Poly Fence"
    },
    "generator": "Sketchfab-12.66.0",
    "version": "2.0"
  },
  "bufferViews": [
    {
      "buffer": 0,
      "byteLength": 1704,
      "name": "floatBufferViews",
      "target": 34963
    },
    {
      "buffer": 0,
      "byteLength": 10224,
      "byteOffset": 1704,
      "byteStride": 12,
      "name": "floatBufferViews",
      "target": 34962
    }
  ],
  "buffers": [
    {
      "byteLength": 11928,
      "uri": "scene.bin"
    }
  ],
  "materials": [
    {
      "doubleSided": true,
      "name": "Material.001",
      "pbrMetallicRoughness": {
        "baseColorFactor": [
          0.478586,
          0.224051,
          0.061223,
          1.0
        ],
        "metallicFactor": 0.0,
        "roughnessFactor": 0.60411390473571
      }
    }
  ],
  "meshes": [
    {
      "name": "Cube.001_Material.001_0",
      "primitives": [
        {
          "attributes": {
            "NORMAL": 1,
            "POSITION": 0
          },
          "indices": 2,
          "material": 0,
          "mode": 4
        }
      ]
    }
  ],
  "nodes": [
    {
      "children": [
        1
      ],
      "matrix": [
        1.0,
        0.0,
        0.0,
        0.0,
        0.0,
        2.220446049250313e-16,
        -1.0,
        0.0,
        0.0,
        1.0,
        2.220446049250313e-16,
        0.0,
        0.0,
        0.0,
        0.0,
        1.0
      ],
      "name": "Sketchfab_model"
    },
    {
      "children": [
        2
      ],
      "matrix": [
        1.0,
        0.0,
        0.0,
        0.0,
        0.0,
        0.0,
        1.0,
        0.0,
        0.0,
        -1.0,
        0.0,
        0.0,
        0.0,
        0.0,
        0.0,
        1.0
      ],
      "name": "be3b80cc17bf4d97ae1bf3d6cd923335.fbx"
    },
    {
      "children": [
        3
      ],
      "name": "RootNode"
    },
    {
      "children": [
        4
      ],
      "matrix": [
        -49.99931465550536,
        -1.1033517740947907e-08,
        0.2617899535282231,
        0.0,
        0.01936041434705862,
        2.7917285748801837e-07,
        3.697649339684031,
        0.0,
        -4.775552020752157e-09,
        7.7529573440551545,
        -5.853239738143476e-07,
        0.0,
        0.0,
        0.0,
        0.0,
        1.0
      ],
      "name": "Cube.001"
    },
    {
      "mesh": 0,
      "name": "Cube.001_Material.001_0"
    }
  ],
  "scene": 0,
  "scenes": [
    {
      "name": "Sketchfab_Scene",
      "nodes": [
        0
      ]
    }
  ]
}
