{
  "accessors": [
    {
      "bufferView": 2,
      "componentType": 5126,
      "count": 536,
      "max": [
        0.23654621839523315,
        1.6734755039215088,
        2.3368043899536133
      ],
      "min": [
        -7.455819606781006,
        0.616768479347229,
        -0.31098535656929016
      ],
      "type": "VEC3"
    },
    {
      "bufferView": 2,
      "byteOffset": 6432,
      "componentType": 5126,
      "count": 536,
      "max": [
        1.0,
        1.0,
        1.0
      ],
      "min": [
        -1.0,
        -1.0,
        -1.0
      ],
      "type": "VEC3"
    },
    {
      "bufferView": 1,
      "componentType": 5126,
      "count": 536,
      "max": [
        0.9429410099983215,
        0.9724704027175903
      ],
      "min": [
        0.6820979714393616,
        0.6033529043197632
      ],
      "type": "VEC2"
    },
    {
      "bufferView": 1,
      "byteOffset": 4288,
      "componentType": 5126,
      "count": 536,
      "max": [
        0.9428909420967102,
        0.9710488319396973
      ],
      "min": [
        0.028950929641723633,
        0.028950929641723633
      ],
      "type": "VEC2"
    },
    {
      "bufferView": 0,
      "componentType": 5125,
      "count": 804,
      "type": "SCALAR"
    }
  ],
  "asset": {
    "extras": {
      "author": "Hallu565 (https://sketchfab.com/Hallu565)",
      "license": "CC-BY-4.0 (http://creativecommons.org/licenses/by/4.0/)",
      "source": "https://sketchfab.com/3d-models/low-poly-fence-153346c1e33843e385811a29987dfe1c",
      "title": "Low Poly Fence"
    },
    "generator": "Sketchfab-12.66.0",
    "version": "2.0"
  },
  "bufferViews": [
    {
      "buffer": 0,
      "byteLength": 3216,
      "name": "floatBufferViews",
      "target": 34963
    },
    {
      "buffer": 0,
      "byteLength": 8576,
      "byteOffset": 3216,
      "byteStride": 8,
      "name": "floatBufferViews",
      "target": 34962
    },
    {
      "buffer": 0,
      "byteLength": 12864,
      "byteOffset": 11792,
      "byteStride": 12,
      "name": "floatBufferViews",
      "target": 34962
    }
  ],
  "buffers": [
    {
      "byteLength": 24656,
      "uri": "scene.bin"
    }
  ],
  "images": [
    {
      "uri": "textures/Material_baseColor.png"
    }
  ],
  "materials": [
    {
      "doubleSided": true,
      "name": "Material",
      "pbrMetallicRoughness": {
        "baseColorTexture": {
          "index": 0
        },
        "metallicFactor": 0.0,
        "roughnessFactor": 0.8040408205773457
      }
    }
  ],
  "meshes": [
    {
      "name": "Cube.012_Material_0",
      "primitives": [
        {
          "attributes": {
            "NORMAL": 1,
            "POSITION": 0,
            "TEXCOORD_0": 2,
            "TEXCOORD_1": 3
          },
          "indices": 4,
          "material": 0,
          "mode": 4
        }
      ]
    }
  ],
  "nodes": [
    {
      "children": [
        1
      ],
      "matrix": [
        1.0,
        0.0,
        0.0,
        0.0,
        0.0,
        2.220446049250313e-16,
        -1.0,
        0.0,
        0.0,
        1.0,
        2.220446049250313e-16,
        0.0,
        0.0,
        0.0,
        0.0,
        1.0
      ],
      "name": "Sketchfab_model"
    },
    {
      "children": [
        2
      ],
      "matrix": [
        1.0,
        0.0,
        0.0,
        0.0,
        0.0,
        0.0,
        1.0,
        0.0,
        0.0,
        -1.0,
        0.0,
        0.0,
        0.0,
        0.0,
        0.0,
        1.0
      ],
      "name": "Fence.fbx"
    },
    {
      "children": [
        3
      ],
      "name": "RootNode"
    },
    {
      "children": [
        4
      ],
      "matrix": [
        100.0,
        0.0,
        0.0,
        0.0,
        0.0,
        -1.629206793918314e-05,
        -99.99999999999868,
        0.0,
        0.0,
        99.99999999999868,
        -1.629206793918314e-05,
        0.0,
        697.9157104492188,
        -13.32886791229248,
        112.22728729248047,
        1.0
      ],
      "name": "Cube.012"
    },
    {
      "mesh": 0,
      "name": "Cube.012_Material_0"
    }
  ],
  "samplers": [
    {
      "magFilter": 9729,
      "minFilter": 9987,
      "wrapS": 10497,
      "wrapT": 10497
    }
  ],
  "scene": 0,
  "scenes": [
    {
      "name": "Sketchfab_Scene",
      "nodes": [
        0
      ]
    }
  ],
  "textures": [
    {
      "sampler": 0,
      "source": 0
    }
  ]
}
